<svg width="98" height="98" viewBox="0 0 98 98" fill="none" xmlns="http://www.w3.org/2000/svg">
<rect width="98" height="98" fill="#FAFAFA"/>
<path d="M67.3101 72.84V69.192H80.6861V72.84H67.3101ZM67.3101 78.408V74.76H80.6861V78.408H67.3101Z" fill="black"/>
<rect width="49" height="49" fill="#101926"/>
<rect y="49" width="49" height="49" fill="#101926"/>
<rect x="49" width="49" height="49" fill="#101926"/>
<path d="M23.1101 31.488V26.624H18.3101V22.976H23.1101V18.112H26.8861V22.976H31.6861V26.624H26.8861V31.488H23.1101Z" fill="#FAFAFA"/>
<path d="M69.2698 29.664V26.016H78.7418V29.664H69.2698Z" fill="#FAFAFA"/>
<path d="M20.7421 80.584L18.1501 77.992L22.3741 73.8L18.1501 69.608L20.7421 67.016L24.9981 71.208L29.2541 67.016L31.8461 69.608L27.6221 73.8L31.8461 77.992L29.2541 80.584L24.9981 76.392L20.7421 80.584Z" fill="#FAFAFA"/>
</svg>
