<svg width="98" height="98" viewBox="0 0 98 98" fill="none" xmlns="http://www.w3.org/2000/svg">
<rect width="98" height="98" fill="#FAFAFA"/>
<rect width="49" height="49" fill="#101926"/>
<rect y="49" width="49" height="49" fill="#101926"/>
<rect x="49" width="49" height="49" fill="#101926"/>
<path d="M67.3101 72.84V69.192H80.6861V72.84H67.3101ZM67.3101 78.408V74.76H80.6861V78.408H67.3101Z" fill="black"/>
<path d="M24.7376 84.448C23.159 84.448 21.7616 84.1173 20.5456 83.456C19.351 82.7733 18.4123 81.824 17.7296 80.608C17.0683 79.3707 16.7376 77.92 16.7376 76.256V75.872C16.7376 74.208 17.0683 72.768 17.7296 71.552C18.391 70.3147 19.319 69.3653 20.5136 68.704C21.7083 68.0213 23.095 67.68 24.6736 67.68C26.231 67.68 27.5856 68.032 28.7376 68.736C29.8896 69.4187 30.7856 70.3787 31.4256 71.616C32.0656 72.832 32.3856 74.2507 32.3856 75.872V77.248H20.8336C20.8763 78.336 21.2816 79.2213 22.0496 79.904C22.8176 80.5867 23.7563 80.928 24.8656 80.928C25.9963 80.928 26.8283 80.6827 27.3616 80.192C27.895 79.7013 28.3003 79.1573 28.5776 78.56L31.8736 80.288C31.575 80.8427 31.1376 81.4507 30.5616 82.112C30.007 82.752 29.2603 83.3067 28.3216 83.776C27.383 84.224 26.1883 84.448 24.7376 84.448ZM20.8656 74.24H28.2896C28.2043 73.3227 27.831 72.5867 27.1696 72.032C26.5296 71.4773 25.687 71.2 24.6416 71.2C23.5536 71.2 22.6896 71.4773 22.0496 72.032C21.4096 72.5867 21.015 73.3227 20.8656 74.24Z" fill="#FAFAFA"/>
<g clip-path="url(#clip0_331_47)">
<path d="M19 19H22V34H19V19ZM34 34H31C30.205 34 29.4415 33.6835 28.879 33.121C28.3165 32.5585 28 31.795 28 31C28 26.623 28 19 28 19H31C31 19 31 27.6235 31 30.25C31 30.4495 31.0795 30.64 31.219 30.781C31.36 30.9205 31.5505 31 31.75 31C32.638 31 34 31 34 31V34ZM16 16H34V19H16V16Z" fill="#FAFAFA"/>
</g>
<g clip-path="url(#clip1_331_47)">
<path d="M85.7964 24.7985L84.8147 23.8265C84.5434 23.558 84.1037 23.558 83.8325 23.8265L81.8333 25.8057L79.8342 23.8265C79.5629 23.558 79.1233 23.558 78.852 23.8265L77.8702 24.7985C77.599 25.067 77.599 25.5023 77.8702 25.7709L79.8694 27.75L77.8702 29.7291C77.599 29.9977 77.599 30.433 77.8702 30.7015L78.852 31.6735C79.1233 31.942 79.5629 31.942 79.8342 31.6735L81.8333 29.6943L83.8325 31.6735C84.1037 31.942 84.5434 31.942 84.8147 31.6735L85.7964 30.7015C86.0677 30.433 86.0677 29.9977 85.7964 29.7291L83.7973 27.75L85.7964 25.7709C86.0677 25.5023 86.0677 25.067 85.7964 24.7985ZM84.9583 14H74.3529C73.7218 14 73.1697 14.4211 73.0095 15.0257L69.3294 28.896L66.7943 24.337C66.6744 24.1214 66.4983 23.9416 66.2843 23.8164C66.0703 23.6912 65.8263 23.6251 65.5777 23.625H62.0417C61.4666 23.625 61 24.0865 61 24.6562V26.7188C61 27.2881 61.4666 27.75 62.0417 27.75H63.9349L67.7925 34.7853C68.3346 35.6348 69.0859 36 69.895 36C70.6445 36 71.8238 35.6133 72.2509 34.2177L76.4961 18.125H84.9583C85.5334 18.125 86 17.6631 86 17.0938V15.0312C86 14.4615 85.5334 14 84.9583 14Z" fill="#FAFAFA"/>
</g>
<defs>
<clipPath id="clip0_331_47">
<rect width="24" height="24" fill="white" transform="translate(13 13)"/>
</clipPath>
<clipPath id="clip1_331_47">
<rect width="25" height="22" fill="white" transform="translate(61 14)"/>
</clipPath>
</defs>
</svg>
