<svg width="32" height="32" viewBox="0 0 32 32" fill="none" xmlns="http://www.w3.org/2000/svg">
<rect width="32" height="32" rx="5" fill="#4746B8"/>
<path d="M6.288 22L9.232 10.8H12.912L15.856 22H13.68L13.072 19.536H9.072L8.464 22H6.288ZM9.568 17.584H12.576L11.216 12.128H10.928L9.568 17.584ZM21.3589 22.224C19.9722 22.224 18.8735 21.84 18.0629 21.072C17.2522 20.2933 16.8469 19.184 16.8469 17.744V15.056C16.8469 13.616 17.2522 12.512 18.0629 11.744C18.8735 10.9653 19.9722 10.576 21.3589 10.576C22.7349 10.576 23.7962 10.9547 24.5429 11.712C25.3002 12.4587 25.6789 13.488 25.6789 14.8V14.896H23.5989V14.736C23.5989 14.0747 23.4122 13.5307 23.0389 13.104C22.6762 12.6773 22.1162 12.464 21.3589 12.464C20.6122 12.464 20.0255 12.6933 19.5989 13.152C19.1722 13.6107 18.9589 14.2347 18.9589 15.024V17.776C18.9589 18.5547 19.1722 19.1787 19.5989 19.648C20.0255 20.1067 20.6122 20.336 21.3589 20.336C22.1162 20.336 22.6762 20.1227 23.0389 19.696C23.4122 19.2587 23.5989 18.7147 23.5989 18.064V17.776H25.6789V18C25.6789 19.312 25.3002 20.3467 24.5429 21.104C23.7962 21.8507 22.7349 22.224 21.3589 22.224Z" fill="#FAFAFA"/>
</svg>
